<?xml version="1.0" encoding="utf-8" ?>
<svg baseProfile="full" height="200mm" version="1.1" viewBox="0,0,200,200" width="200mm" xmlns="http://www.w3.org/2000/svg" xmlns:ev="http://www.w3.org/2001/xml-events" xmlns:xlink="http://www.w3.org/1999/xlink"><defs /><rect fill="#1a1a1a" height="200" width="200" x="0" y="0" /><text alignment-baseline="middle" fill="#e1ed5e" style="dominant-baseline: central; font-size:9.0px; font-family:Arial;" text-anchor="middle" x="100.0" y="100.0">2023</text><line stroke="#e1ed5e" stroke-width="0.3" x1="100.0" x2="100.0" y1="15.0" y2="10.0" /><path d="M 100.0 14.0 a86.0,86.0 0 0,1 42.46469731375804,11.215312516191453" fill="none" id="id13" stroke="none" /><text fill="#e1ed5e" style="font-size:6.75px; font-family:Arial;" text-anchor="middle"><textPath startOffset="22.20632615414155" xlink:href="#id13">January</textPath></text><path d="M 100.72285384407766 79.0124445844662 l 0.1786804877423652 -5.187862897723769 a26.190939044361695,26.190939044361695 0 0,0 0.4504332259144489,0.019396602219336097 l -0.2679545460461456 5.184018568980238" fill="#ff0801" stroke="none" /><path d="M 101.80526077348638 79.07773832637324 l 0.8756993267074769 -10.149010453159816 a31.186719908250307,31.186719908250307 0 0,0 0.5344436601644633,0.050751865296290735 l -1.0502681139621843 10.132433043348348" fill="#ff5407" stroke="none" /><path d="M 102.88285421437855 79.19881850522331 l 2.3170448918337576 -16.71859474759073 a37.878391729218194,37.878391729218194 0 0,0 0.6450708501830036,0.095066675011492 l -2.604484722445417 16.676233588418267" fill="#ffb310" stroke="none" /><path d="M 103.95276090670814 79.375362276772 l 3.4535364153752592 -18.019794040720026 a39.34774893664866,39.34774893664866 0 0,0 0.6641030445239278,0.1332128231744263 l -3.7632058693663124 17.95767726146839" fill="#ffc712" stroke="none" /><path d="M 105.01212808612495 79.60689891045804 l 2.705640607073895 -11.008577886261959 a32.33619328401483,32.33619328401483 0 0,0 0.5393848133882564,0.13750119883651915 l -2.8947343091471764 10.96037369125657" fill="#ff6509" stroke="none" /><path d="M 105.36241919743992 79.69619591428918 l 4.488642213894565 -16.99540986375628 a38.57816444801392,38.57816444801392 0 0,0 0.6405851129951071,0.1750961096243955 l -4.780525216113383 16.91562721330559" fill="#ffbd11" stroke="none" /><path d="M 106.0581310904928 79.89281104454417 l 3.032305208925924 -10.06434705616892 a31.511230020653876,31.511230020653876 0 0,0 0.5180065489050883,0.16094715627148587 l -3.2050971305417306 10.010659765014914" fill="#ff5908" stroke="none" /><path d="M 106.40334571778207 80.00007090966166 l 5.205019372464038 -16.257129155783787 a38.07004613513277,38.07004613513277 0 0,0 0.6223857522007021,0.20519079711022553 l -5.484087946907158 16.165124634414326" fill="#ffb610" stroke="none" /><path d="M 107.4271985657038 80.35727306442388 l 3.7167188903619253 -9.829613900023507 a31.508820520567877,31.508820520567877 0 0,0 0.5056668079254919,0.19619086546988138 l -3.885368863287084 9.764180330663079" fill="#ff5808" stroke="none" /><path d="M 107.76421540070413 80.48803036053334 l 3.5262971546219357 -8.861810172664834 a30.537633415006088,30.537633415006088 0 0,0 0.48673516612377116,0.1985514954540785 l -3.6783161903340944 8.799797791027176" fill="#ff4a06" stroke="none" /><path d="M 108.09893153111575 80.62456947434976 l 6.764720359747249 -16.18353839048665 a38.540477655466916,38.540477655466916 0 0,0 0.609886986068147,0.2611217787313974 l -7.042291103605712 16.06469708379246" fill="#ffbc11" stroke="none" /><path d="M 108.43124777332544 80.76684994638697 l 5.6720925558450865 -12.939034669304007 a35.12767681310428,35.12767681310428 0 0,0 0.5517017118896028,0.2475324764059657 l -5.893976386201469 12.83948186238151" fill="#ff8d0d" stroke="none" /><path d="M 109.41281617654863 81.2277094730956 l 6.205635064803743 -12.376103193290623 a34.84477651710204,34.84477651710204 0 0,0 0.5338543526995805,0.2734609344682795 l -6.417749905092078 12.267449733509842" fill="#ff890c" stroke="none" /><path d="M 109.73455568895987 81.39251694778311 l 10.565364214124335 -20.195563293944595 a43.79227276374213,43.79227276374213 0 0,0 0.6649230045001193,0.35517884126205274 l -10.911432265152765 20.010705726180788" fill="#fcff18" stroke="none" /><path d="M 110.05341064243156 81.56283822128135 l 7.012574551397963 -12.860508347660467 a35.64816974229746,35.64816974229746 0 0,0 0.5362094328696632,0.29839996885033254 l -7.232908073339661 12.737892981249955" fill="#ff940d" stroke="none" /><path d="M 110.36928655335952 81.73862282372117 l 17.617566050779715 -31.026340811949094 a56.67930012952614,56.67930012952614 0 0,0 0.8442604896235294,0.4890501688338935 l -18.149023272868575 30.71848648572515" fill="#63ff29" stroke="none" /><line stroke="#e1ed5e" stroke-width="0.3" x1="143.23703022742887" x2="145.7803849466894" y1="26.81831364943548" y2="22.513508569990506" /><path d="M 143.74570117128098 25.957352633546492 a86.0,86.0 0 0,1 28.547481713284135,27.462654790039103" fill="none" id="id14" stroke="none" /><text fill="#e1ed5e" style="font-size:6.75px; font-family:Arial;" text-anchor="middle"><textPath startOffset="19.985693538727396" xlink:href="#id14">February</textPath></text><path d="M 110.68208982089419 81.91981866633111 l 16.660168814716236 -28.198496574183455 a53.75235005276842,53.75235005276842 0 0,0 0.7925603145850227,0.4775087215195889 l -17.143091195518895 27.90754124320525" fill="#84ff25" stroke="none" /><path d="M 110.99172775467656 82.1063720568725 l 11.570431037548493 -18.835709248659395 a43.10562863378236,43.10562863378236 0 0,0 0.6288923351592705,0.39381232258204146 l -11.892942525080027 18.633752584754408" fill="#fff917" stroke="none" /><path d="M 111.60114157652 82.49532879139004 l 34.803424729560035 -52.514013625829904 a84.0,84.0 0 0,0 1.1983812223738326,0.8091523508053196 l -35.70221064634041 51.90714936272591" fill="#4dd2ff" stroke="none" /><path d="M 111.90073688211348 82.69761687909136 l 14.07945354874347 -20.470001298787935 a45.84455605165053,45.84455605165053 0 0,0 0.646340260309791,0.4528026572319363 l -14.429724948636911 20.224613798792063" fill="#e2ff1b" stroke="none" /><path d="M 112.48926042617603 83.11751280151076 l 15.852588407668346 -21.42890064926954 a47.65524980673048,47.65524980673048 0 0,0 0.6552684131094525,0.4935345836151692 l -16.21910297453618 21.152849476148525" fill="#ccff1d" stroke="none" /><path d="M 112.77801427241765 83.33499621200491 l 2.830650544248048 -3.691716180362258 a25.652026532598484,25.652026532598484 0 0,0 0.34809487885605184,0.2716935743366261 l -2.8937779782635302 3.642444216802408" fill="#ff0000" stroke="none" /><path d="M 113.34407831869373 83.78471172551755 l 16.744519279611975 -20.347393102164933 a47.351381974373304,47.351381974373304 0 0,0 0.6249085061317843,0.5233429024788194 l -17.092285322702878 20.056149042292294" fill="#d0ff1d" stroke="none" /><path d="M 114.16331599549186 84.49514656593476 l 28.675298497418332 -31.391398774274286 a63.51696909378126,63.51696909378126 0 0,0 0.8008948886323644,0.7443445143056365 l -29.211401269845545 30.89314967389401" fill="#32ff49" stroke="none" /><path d="M 114.42810811169701 84.74124197986012 l 18.36010586209871 -19.417127346501765 a47.72299237843206,47.72299237843206 0 0,0 0.5920304371208764,0.5695328114451826 l -18.691619542832004 19.09821144829428" fill="#cbff1d" stroke="none" /><path d="M 114.68862486808459 84.99185889309783 l 6.359330247885096 -6.497662413111679 a30.091792894497246,30.091792894497246 0 0,0 0.3670685737309303,0.36549226462132106 l -6.470234621783349 6.38723429784024" fill="#ff4406" stroke="none" /><path d="M 114.94478906791727 85.2469230424477 l 14.025045194374465 -13.845131580340949 a40.70760160905432,40.70760160905432 0 0,0 0.4879789554255139,0.5029052081271652 l -14.261288413503088 13.60166217666367" fill="#ffd914" stroke="none" /><path d="M 115.19652480421416 85.50635884689758 l 11.58013084127747 -11.044515972027122 a37.00252365589465,37.00252365589465 0 0,0 0.4356301436808634,0.4646998638453651 l -11.768528306928795 10.843546691303702" fill="#ffa70f" stroke="none" /><path d="M 115.68641384162765 86.03803664274999 l 17.21884502062465 -15.325930174948315 a44.05152401841756,44.05152401841756 0 0,0 0.4992676732466297,0.5707492576649347 l -17.480104557449128 15.027265361080433" fill="#f9ff18" stroke="none" /><path d="M 115.9244219780498 86.31012108654704 l 39.55701273930386 -34.0063027295704 a73.16498712922908,73.16498712922908 0 0,0 0.8127911886476579,0.9620883998208674 l -40.136514541438636 33.320355380120425" fill="#3fffbb" stroke="none" /><path d="M 116.15771136456269 86.58626213691792 l 20.210302846687597 -16.778100462515965 a47.267108639610626,47.267108639610626 0 0,0 0.5143145523494872,0.6304888279432685 l -20.496115891113494 16.427727464964594" fill="#d1ff1d" stroke="none" /><path d="M 116.60985879189232 87.15038557335679 l 12.419030387357715 -9.607532130749172 a36.70149640656877,36.70149640656877 0 0,0 0.38226191875689675,0.5030118768456205 l -12.582568246338726 9.392335478022519" fill="#ffa30f" stroke="none" /><path d="M 116.82858285166822 87.43820079747576 l 15.756178529428007 -11.761296398536498 a40.66177140609248,40.66177140609248 0 0,0 0.41385432337649214,0.564496831986692 l -15.956295465318126 11.488337122878312" fill="#ffd914" stroke="none" /><path d="M 117.04232023915458 87.72973835380427 l 11.56432463303817 -8.326171965887431 a35.24986820373519,35.24986820373519 0 0,0 0.3502953641759955,0.49546795050188397 l -11.705932617018048 8.125877515053753" fill="#ff8e0d" stroke="none" /><path d="M 117.2510076193507 88.02491185347247 l 21.949751560902595 -15.23680329497658 a47.71987590231577,47.71987590231577 0 0,0 0.462599963573127,0.6788083647062221 l -22.208775990144453 14.856716906999951" fill="#cbff1d" stroke="none" /><path d="M 117.45458315368197 88.32363383020206 l 24.43466189902104 -16.345738941808843 a50.397889102335846,50.397889102335846 0 0,0 0.4761481318457905,0.7252062714467777 l -24.71240666622476 15.922714606384393" fill="#abff21" stroke="none" /><line stroke="#e1ed5e" stroke-width="0.3" x1="172.23445277983987" x2="176.4835382374775" y1="55.19839476539836" y2="52.563006222186495" /><path d="M 173.08426987136738 54.67131705675599 a86.0,86.0 0 0,1 12.851231095245387,41.99856678651699" fill="none" id="id15" stroke="none" /><text fill="#e1ed5e" style="font-size:6.75px; font-family:Arial;" text-anchor="middle"><textPath startOffset="22.20632615414155" xlink:href="#id15">March</textPath></text><path d="M 117.84615892207809 88.93136811851018 l 13.74256012937124 -8.523477788436999 a37.17119762167796,37.17119762167796 0 0,0 0.3325657519949512,0.5466506540029735 l -13.887241679652416 8.285659361226944" fill="#ffa90f" stroke="none" /><path d="M 118.03404312379186 89.2402003453031 l 17.084194596480938 -10.19308370608684 a40.893935268058996,40.893935268058996 0 0,0 0.35546629790575485,0.6076071292143588 l -17.257120568857022 9.897497164518587" fill="#ffdc14" stroke="none" /><path d="M 118.3937258080291 89.86733742301442 l 30.722182546849268 -16.924113832331564 a56.07532080326061,56.07532080326061 0 0,0 0.45846087693553217,0.8494583768214374 l -31.008951523003265 16.392774472177667" fill="#69ff28" stroke="none" /><path d="M 118.56541770881063 90.18545643968196 l 23.75348609275883 -12.557197883899674 a47.86840747521709,47.86840747521709 0 0,0 0.37882275104899293,0.7317649781667382 l -23.96611827696794 12.146460183472591" fill="#c9ff1d" stroke="none" /><line stroke="#e1ed5e" stroke-width="0.3" x1="184.98032266829074" x2="189.97916517819016" y1="98.17113171792111" y2="98.06355123074" /><path d="M 185.9800911702706 98.14961562048488 a86.0,86.0 0 0,1 -9.607161424134198,41.387399972396054" fill="none" id="id16" stroke="none" /><text fill="#e1ed5e" style="font-size:6.75px; font-family:Arial;" text-anchor="middle"><textPath startOffset="21.466115282336823" xlink:href="#id16">April</textPath></text><line stroke="#e1ed5e" stroke-width="0.3" x1="174.80103733775053" x2="179.2010983576182" y1="140.37084112569926" y2="142.7455964860345" /><path d="M 175.68104954172406 140.8457921977663 a86.0,86.0 0 0,1 -30.038265399797805,32.042727171017184" fill="none" id="id17" stroke="none" /><text fill="#e1ed5e" style="font-size:6.75px; font-family:Arial;" text-anchor="middle"><textPath startOffset="22.206326154141568" xlink:href="#id17">May</textPath></text><line stroke="#e1ed5e" stroke-width="0.3" x1="143.8653032363475" x2="146.44561519142675" y1="172.8068346515853" y2="177.08958963109032" /><path d="M 144.38136562736335 173.6633856474863 a86.0,86.0 0 0,1 -40.68145358897372,12.25698825130547" fill="none" id="id18" stroke="none" /><text fill="#e1ed5e" style="font-size:6.75px; font-family:Arial;" text-anchor="middle"><textPath startOffset="21.466115282336833" xlink:href="#id18">June</textPath></text><line stroke="#e1ed5e" stroke-width="0.3" x1="102.19456741930631" x2="102.32365962044197" y1="184.97166512339345" y2="189.96999836594603" /><path d="M 102.22038585953345 185.97133177190398 a86.0,86.0 0 0,1 -42.740103519485714,-10.115201625700543" fill="none" id="id19" stroke="none" /><text fill="#e1ed5e" style="font-size:6.75px; font-family:Arial;" text-anchor="middle"><textPath startOffset="22.20632615414155" xlink:href="#id19">July</textPath></text><line stroke="#e1ed5e" stroke-width="0.3" x1="58.666819895761336" x2="56.23545636021788" y1="174.27360380694188" y2="178.64263932499728" /><path d="M 58.180547188652646 175.14741091055294 a86.0,86.0 0 0,1 -31.652253787137756,-30.449443065178592" fill="none" id="id20" stroke="none" /><text fill="#e1ed5e" style="font-size:6.75px; font-family:Arial;" text-anchor="middle"><textPath startOffset="22.20632615414155" xlink:href="#id20">August</textPath></text><line stroke="#e1ed5e" stroke-width="0.3" x1="26.63291911575756" x2="22.317208475507996" y1="142.92168965132927" y2="145.44649492493687" /><path d="M 25.769776987707644 143.4266507060508 a86.0,86.0 0 0,1 -11.730757126820373,-40.83630448921669" fill="none" id="id21" stroke="none" /><text fill="#e1ed5e" style="font-size:6.75px; font-family:Arial;" text-anchor="middle"><textPath startOffset="21.46611528233685" xlink:href="#id21">September</textPath></text><line stroke="#e1ed5e" stroke-width="0.3" x1="15.007084014347285" x2="10.007500721073583" y1="101.09737516637583" y2="101.16192664675087" /><path d="M 14.007167355692545 101.11028546245083 a86.0,86.0 0 0,1 10.666146001902534,-42.60595125391555" fill="none" id="id22" stroke="none" /><text fill="#e1ed5e" style="font-size:6.75px; font-family:Arial;" text-anchor="middle"><textPath startOffset="22.20632615414155" xlink:href="#id22">October</textPath></text><line stroke="#e1ed5e" stroke-width="0.3" x1="26.266209847984243" x2="21.928928074336255" y1="57.711370442889674" y2="55.22380399835377" /><path d="M 25.398753493254645 57.213857153982495 a86.0,86.0 0 0,1 29.58750427330803,-30.492523968695096" fill="none" id="id23" stroke="none" /><text fill="#e1ed5e" style="font-size:6.75px; font-family:Arial;" text-anchor="middle"><textPath startOffset="21.46611528233685" xlink:href="#id23">November</textPath></text><line stroke="#e1ed5e" stroke-width="0.3" x1="56.762969772571076" x2="54.21961505331055" y1="26.818313649435495" y2="22.513508569990535" /><path d="M 56.25429882871897 25.957352633546506 a86.0,86.0 0 0,1 42.265352541879196,-11.944610805530505" fill="none" id="id24" stroke="none" /><text fill="#e1ed5e" style="font-size:6.75px; font-family:Arial;" text-anchor="middle"><textPath startOffset="22.20632615414155" xlink:href="#id24">December</textPath></text></svg>