<?xml version="1.0" encoding="utf-8" ?>
<svg baseProfile="full" height="200mm" version="1.1" viewBox="0,0,200,200" width="200mm" xmlns="http://www.w3.org/2000/svg" xmlns:ev="http://www.w3.org/2001/xml-events" xmlns:xlink="http://www.w3.org/1999/xlink"><defs /><rect fill="#1a1a1a" height="200" width="200" x="0" y="0" /><text alignment-baseline="middle" fill="#e1ed5e" style="dominant-baseline: central; font-size:9.0px; font-family:Arial;" text-anchor="middle" x="100.0" y="100.0">2023</text><line stroke="#e1ed5e" stroke-width="0.3" x1="100.0" x2="100.0" y1="15.0" y2="10.0" /><path d="M 100.0 14.0 a86.0,86.0 0 0,1 42.46469731375804,11.215312516191453" fill="none" id="id13" stroke="none" /><text fill="#e1ed5e" style="font-size:6.75px; font-family:Arial;" text-anchor="middle"><textPath startOffset="22.20632615414155" xlink:href="#id13">January</textPath></text><path d="M 100.72285384407766 79.0124445844662 l 0.20056566991014166 -5.823283843864457 a26.826736763760596,26.826736763760596 0 0,0 0.4613677104433474,0.01986746412444967 l -0.30077421274282057 5.818968653215813" fill="#ff1c02" stroke="none" /><path d="M 101.80526077348638 79.07773832637324 l 0.9778870404740612 -11.333325826680719 a32.375435699683564,32.375435699683564 0 0,0 0.5548145622772187,0.05268632791050219 l -1.172826729841524 11.314813954255039" fill="#ff6d0a" stroke="none" /><path d="M 102.88285421437855 79.19881850522331 l 2.5963105126929102 -18.73363069209649 a39.91268746598905,39.91268746598905 0 0,0 0.679715005347337,0.10017232292461818 l -2.9183944984689028 18.686163885010906" fill="#ffd513" stroke="none" /><path d="M 103.95276090670814 79.375362276772 l 3.875189827976956 -20.219888882002802 a41.58788485015876,41.58788485015876 0 0,0 0.7019115881004528,0.14079686133156616 l -4.2226678255445345 20.150188064594026" fill="#ffeb16" stroke="none" /><path d="M 105.01212808612495 79.60689891045804 l 3.031688069517554 -12.335183820377827 a33.70227902517363,33.70227902517363 0 0,0 0.5621718463607354,0.14331012091565784 l -3.243568804563314 12.2811707032933" fill="#ff800b" stroke="none" /><path d="M 105.36241919743992 79.69619591428918 l 5.021768816499053 -19.013994702727814 a40.665964420839465,40.665964420839465 0 0,0 0.6752527443000094,0.1845720828373847 l -5.348319450022774 18.924736079064136" fill="#ffdf14" stroke="none" /><path d="M 106.0581310904928 79.89281104454417 l 3.3617645405212007 -11.157836274967838 a32.65327298079359,32.65327298079359 0 0,0 0.5367803553257063,0.16678026931257883 l -3.553330268557625 11.098315870772739" fill="#ff710a" stroke="none" /><path d="M 106.40334571778207 80.00007090966166 l 5.842384420696578 -18.247847185252628 a40.16030747706128,40.16030747706128 0 0,0 0.6565582581381628,0.21645693504440552 l -6.155625501077158 18.144576525948988" fill="#ffd814" stroke="none" /><path d="M 107.4271985657038 80.35727306442388 l 4.140297510110139 -10.94985312479425 a32.70646603065121,32.70646603065121 0 0,0 0.5248871269379035,0.20364805064112534 l -4.328167802047711 10.876962370262577" fill="#ff720a" stroke="none" /><path d="M 107.76421540070413 80.48803036053334 l 3.9674187632754907 -9.97037697447977 a31.730742222997755,31.730742222997755 0 0,0 0.5057519643795322,0.20630892494597125 l -4.138454597243411 9.90060716335022" fill="#ff6409" stroke="none" /><path d="M 108.09893153111575 80.62456947434976 l 7.5459344628491705 -18.05247128887654 a40.56611475365834,40.56611475365834 0 0,0 0.6419418483801234,0.2748459978983859 l -7.855560069019608 17.91990576301536" fill="#ffde14" stroke="none" /><path d="M 108.43124777332544 80.76684994638697 l 6.354614181779928 -14.495985810981013 a36.8276569975294,36.8276569975294 0 0,0 0.5784009434646288,0.2595116433497598 l -6.603197243711337 14.384453837114723" fill="#ffac0f" stroke="none" /><path d="M 109.41281617654863 81.2277094730956 l 6.958932508569877 -13.878429192472879 a36.52538368315946,36.52538368315946 0 0,0 0.5596028160406357,0.2866502974673099 l -7.196795812199269 13.756586369693068" fill="#ffa80f" stroke="none" /><path d="M 109.73455568895987 81.39251694778311 l 11.820526855932211 -22.59479119211191 a46.49998910131047,46.49998910131047 0 0,0 0.7060358029205899,0.377139874351893 l -12.207707705381113 22.387972591258265" fill="#d5ff1c" stroke="none" /><path d="M 110.05341064243156 81.56283822128135 l 7.848148243275189 -14.392884561376489 a37.39355229489732,37.39355229489732 0 0,0 0.5624629711420563,0.3130100344748165 l -8.09473530348928 14.255659129341494" fill="#ffb310" stroke="none" /><path d="M 110.36928655335952 81.73862282372117 l 15.195518446268485 -26.76086655609952 a51.77414108767703,51.77414108767703 0 0,0 0.7711962145726894,0.4467266247518142 l -15.653911393306503 26.495335773957656" fill="#96ff23" stroke="none" /><line stroke="#e1ed5e" stroke-width="0.3" x1="143.23703022742887" x2="145.7803849466894" y1="26.81831364943548" y2="22.513508569990506" /><path d="M 143.74570117128098 25.957352633546492 a86.0,86.0 0 0,1 28.547481713284135,27.462654790039103" fill="none" id="id14" stroke="none" /><text fill="#e1ed5e" style="font-size:6.75px; font-family:Arial;" text-anchor="middle"><textPath startOffset="19.985693538727396" xlink:href="#id14">February</textPath></text><path d="M 110.68208982089419 81.91981866633111 l 14.35515840728843 -24.29710584998525 a49.22091291194761,49.22091291194761 0 0,0 0.7257457987112887,0.43725372329838486 l -14.771266272217357 24.046405517228248" fill="#b4ff20" stroke="none" /><path d="M 110.99172775467656 82.1063720568725 l 9.984049306361062 -16.253210381585003 a40.07480244353559,40.07480244353559 0 0,0 0.5846739019602157,0.36612274376940024 l -10.262342360693541 16.078943296492657" fill="#ffd714" stroke="none" /><path d="M 111.60114157652 82.49532879139004 l 30.043714625329734 -45.33220657061054 a75.38413133487339,75.38413133487339 0 0,0 1.075463422103275,0.7261577033694018 l -30.819582741839554 44.80833695494247" fill="#42ffd5" stroke="none" /><path d="M 111.90073688211348 82.69761687909136 l 12.234535736689047 -17.787690520307372 a42.58902032836493,42.58902032836493 0 0,0 0.6004420340413205,0.42064801656846457 l -12.538908910314019 17.574457660974975" fill="#fff817" stroke="none" /><path d="M 112.48926042617603 83.11751280151076 l 13.64606365567143 -18.44620795109643 a43.94510058966249,43.94510058966249 0 0,0 0.6042531818447522,0.455110969083257 l -13.961562991274564 18.208580392507326" fill="#f5ff19" stroke="none" /><path d="M 112.77801427241765 83.33499621200491 l 2.4328394005767735 -3.172893452914004 a24.998244666418415,24.998244666418415 0 0,0 0.33922313848041213,0.2647690402522253 l -2.487095094216616 3.1305460234385545" fill="#ff0000" stroke="none" /><path d="M 113.34407831869373 83.78471172551755 l 14.429753075058747 -17.5345647899781 a43.70856085667049,43.70856085667049 0 0,0 0.5768332481804748,0.4830812565150015 l -14.729443860198339 17.28358237606928" fill="#f8ff18" stroke="none" /><path d="M 114.16331599549186 84.49514656593476 l 24.71223976667766 -27.052962437029176 a57.64092753882025,57.64092753882025 0 0,0 0.7268030087158146,0.675484186747982 l -25.17425065918832 26.623573664206553" fill="#55ff2b" stroke="none" /><path d="M 114.42810811169701 84.74124197986012 l 15.80242804212577 -16.712199808787624 a44.000312051696255,44.000312051696255 0 0,0 0.545848503607111,0.5251058279948382 l -16.0877597893453 16.437710894030484" fill="#f4ff19" stroke="none" /><path d="M 114.68862486808459 84.99185889309783 l 5.412818073554964 -5.530561108576845 a28.7385855085478,28.7385855085478 0 0,0 0.35056175052952987,0.3490563269645986 l -5.507215624251816 5.436568930962127" fill="#ff3805" stroke="none" /><path d="M 114.94478906791727 85.2469230424477 l 12.089061689482941 -11.933982917993392 a37.987211684649196,37.987211684649196 0 0,0 0.4553685096810012,0.46929727724833625 l -12.292694462867052 11.72412144519494" fill="#ffbb11" stroke="none" /><path d="M 115.19652480421416 85.50635884689758 l 9.874033602242639 -9.417330712670166 a34.64487659636457,34.64487659636457 0 0,0 0.4078736009962879,0.4350911193784314 l -10.03467452520939 9.24597017641368" fill="#ff8e0d" stroke="none" /><path d="M 115.68641384162765 86.03803664274999 l 14.838532978968388 -13.207292362637652 a40.86490957744634,40.86490957744634 0 0,0 0.46315147493274983,0.5294621996760153 l -15.063676317478985 12.94991460675869" fill="#ffe215" stroke="none" /><path d="M 115.9244219780498 86.31012108654704 l 34.07462595505738 -29.29321415803529 a65.93520367913769,65.93520367913769 0 0,0 0.7324753912337144,0.8670198285893275 l -34.573811959778205 28.702335379816855" fill="#35ff69" stroke="none" /><path d="M 116.15771136456269 86.58626213691792 l 17.408931487429985 -14.452470289876443 a43.62619705151072,43.62619705151072 0 0,0 0.47469770529723454,0.5819232578059308 l -17.65512768480363 14.150662862462411" fill="#f9ff18" stroke="none" /><path d="M 116.60985879189232 87.15038557335679 l 10.61153293253248 -8.20922732499247 a34.41626044960459,34.41626044960459 0 0,0 0.35846020037341875,0.4716916054590317 l -10.751269073130011 8.025350943652406" fill="#ff8a0c" stroke="none" /><path d="M 116.82858285166822 87.43820079747576 l 13.57567006811496 -10.133642442653674 a37.94076524109417,37.94076524109417 0 0,0 0.38616000199358474,0.5267218087439107 l -13.748092682622172 9.89845819023827" fill="#ffbb11" stroke="none" /><path d="M 117.04232023915458 87.72973835380427 l 9.859925782925949 -7.099025688451351 a33.14966263606114,33.14966263606114 0 0,0 0.3294245833287956,0.4659477111003124 l -9.980662986058627 6.928251477019246" fill="#ff780b" stroke="none" /><path d="M 117.2510076193507 88.02491185347247 l 18.91614554787215 -13.1309727133979 a44.02700603179414,44.02700603179414 0 0,0 0.4268010132346853,0.6262778224430134 l -19.139371026775567 12.803416867684481" fill="#f4ff19" stroke="none" /><path d="M 117.45458315368197 88.32363383020206 l 21.08169692893005 -14.102749441539432 a46.36386183557424,46.36386183557424 0 0,0 0.4380355326656298,0.6671581681402599 l -21.321329096953605 13.737773209421498" fill="#d7ff1c" stroke="none" /><line stroke="#e1ed5e" stroke-width="0.3" x1="172.23445277983987" x2="176.4835382374775" y1="55.19839476539836" y2="52.563006222186495" /><path d="M 173.08426987136738 54.67131705675599 a86.0,86.0 0 0,1 12.851231095245387,41.99856678651699" fill="none" id="id15" stroke="none" /><text fill="#e1ed5e" style="font-size:6.75px; font-family:Arial;" text-anchor="middle"><textPath startOffset="22.20632615414155" xlink:href="#id15">March</textPath></text><path d="M 117.84615892207809 88.93136811851018 l 11.754913437005346 -7.2906898454224764 a34.83228644634123,34.83228644634123 0 0,0 0.3116398253731621,0.5122539327386837 l -11.878669060664732 7.087268139476712" fill="#ff900d" stroke="none" /><path d="M 118.03404312379186 89.2402003453031 l 14.66447681606846 -8.74938756100011 a38.076260216499186,38.076260216499186 0 0,0 0.33097394927963275,0.5657417661008606 l -14.81291043981842 8.495666382545355" fill="#ffbd11" stroke="none" /><path d="M 118.3937258080291 89.86733742301442 l 26.395876727719845 -14.54085567530542 a51.13600491098719,51.13600491098719 0 0,0 0.4180779943591099,0.7746350285042765 l -26.64226282129742 14.084339663468683" fill="#9eff22" stroke="none" /><path d="M 118.56541770881063 90.18545643968196 l 20.445535930602063 -10.808461525199743 a44.126668156724676,44.126668156724676 0 0,0 0.34921123779626273,0.6745649597178309 l -20.628556601558444 10.454923843221566" fill="#f2ff19" stroke="none" /><path d="M 118.73160827565052 90.50648371742162 l 19.89381886347817 -10.082545530732666 a43.30295391539374,43.30295391539374 0 0,0 0.3312469502880008,0.66777363881772 l -20.064425826719578 9.738612303415996" fill="#fdff18" stroke="none" /><path d="M 119.04729006885535 91.15688171328212 l 25.63022834355109 -11.899390419228922 a49.257814800366404,49.257814800366404 0 0,0 0.3504287334582522,0.7721232630863962 l -25.831259393972687 11.456445147300462" fill="#b4ff20" stroke="none" /><path d="M 119.196687751892 91.48605970444005 l 23.55211439702069 -10.4456194944708 a46.76456984297657,46.76456984297657 0 0,0 0.32002395888793056,0.7386594199978518 l -23.728429065751303 10.038660929886344" fill="#d2ff1c" stroke="none" /><path d="M 119.61058180528143 92.48833698450437 l 41.48589951078004 -15.890813445206845 a65.42519341734942,65.42519341734942 0 0,0 0.39378305925460183,1.055142822182715 l -41.75328715853627 15.174347485994797" fill="#35ff63" stroke="none" /><path d="M 119.7369772167798 92.82701384747503 l 13.89313470093592 -5.049165418312054 a35.782194128065974,35.782194128065974 0 0,0 0.20540158400017505,0.5806979376432637 l -13.977989365745906 4.809269854242175" fill="#ff9d0e" stroke="none" /><path d="M 120.78858239683441 97.02765380044208 l 44.50622167663311 -6.363488203859759 a65.95884507024473,65.95884507024473 0 0,0 0.1510269127857945,1.1253259222508203 l -44.609164588476744 5.596443939544273" fill="#35ff69" stroke="none" /><path d="M 120.87857604477298 97.74499172005257 l 13.477846933273746 -1.4556862673594666 a34.55623031914608,34.55623031914608 0 0,0 0.05878323202794354,0.5919391244004828 l -13.500907290983918 1.2234716122545488" fill="#ff8c0c" stroke="none" /><path d="M 120.96714384426684 98.82574320788733 l 22.335012173313416 -1.2508637295204992 a43.370011820557636,43.370011820557636 0 0,0 0.035328781577159414,0.7457347416205988 l -22.35323456312407 0.8662178812769007" fill="#fcff18" stroke="none" /><line stroke="#e1ed5e" stroke-width="0.3" x1="184.98032266829074" x2="189.97916517819016" y1="98.17113171792111" y2="98.06355123074" /><path d="M 185.9800911702706 98.14961562048488 a86.0,86.0 0 0,1 -9.607161424134198,41.387399972396054" fill="none" id="id16" stroke="none" /><text fill="#e1ed5e" style="font-size:6.75px; font-family:Arial;" text-anchor="middle"><textPath startOffset="21.466115282336823" xlink:href="#id16">April</textPath></text><path d="M 120.99513854157772 99.54816195383933 l 22.676806879785982 -0.4880293641994376 a43.682057731242764,43.682057731242764 0 0,0 0.009707802500726111,0.7518800020549478 l -22.68184768940442 0.09761310408402708" fill="#f8ff18" stroke="none" /><path d="M 120.99980553446 99.90962569577887 l 23.626745420664168 -0.10167954531285629 a44.626964212585804,44.626964212585804 0 0,0 -0.0033060137707986554,0.768201170447292 l -23.624995109603866 -0.3050311033381204" fill="#ecff1a" stroke="none" /><path d="M 120.9764740272857 100.99374915477107 l 27.947758123583583 1.3240099826563216 a48.97910267625654,48.97910267625654 0 0,0 -0.04714506644483449,0.8418068316367784 l -27.92082670625122 -1.8048885306285234" fill="#b7ff1f" stroke="none" /><path d="M 120.95626037817324 101.35467743843564 l 23.146786588552835 1.4962798227328837 a44.19509824691258,44.19509824691258 0 0,0 -0.055608885040529875,0.7587390549131657 l -23.117601144847967 -1.8944920141428196" fill="#f2ff19" stroke="none" /><path d="M 120.8583938346157 102.4346265915055 l 62.575181503847105 7.303879774516526 a84.0,84.0 0 0,0 -0.1799939630126075,1.4347289828504204 l -62.44018603158764 -8.379926511654341" fill="#4dd2ff" stroke="none" /><path d="M 120.5718875245553 104.21870165774334 l 12.333846053034854 2.5293166088032093 a33.59052028184424,33.59052028184424 0 0,0 -0.12103138127961122,0.5654183199168015 l -12.2884806330308 -2.74124874813618" fill="#ff7f0b" stroke="none" /><path d="M 120.49622156327973 104.57218783832717 l 29.79274095062329 6.646005822307984 a51.5250193569324,51.5250193569324 0 0,0 -0.2005536153644269,0.8639797260141804 l -29.67392676932831 -7.15785420567073" fill="#99ff23" stroke="none" /><path d="M 120.41448212921028 104.9243191809786 l 23.194452209503336 5.594895093817752 a44.859703778751324,44.859703778751324 0 0,0 -0.18753211599283193,0.7490975832422633 l -23.094708779215445 -5.993320516457411" fill="#e9ff1a" stroke="none" /><path d="M 120.32669344350535 105.2749913415812 l 21.33651369811822 5.537050348592906 a43.04326979721564,43.04326979721564 0 0,0 -0.19228437810555618,0.7155617024751935 l -21.23804124367089 -5.903502984243648" fill="#fffe18" stroke="none" /><path d="M 120.02730092923936 106.31721596034902 l 22.39416169310315 7.063795374431459 a44.48181600789615,44.48181600789615 0 0,0 -0.23661731128340713,0.7282332035476197 l -22.269252130803498 -7.448227477956874" fill="#eeff19" stroke="none" /><path d="M 119.79798401119884 107.00284435728193 l 10.873614783127598 3.846160896190738 a32.53379608330396,32.53379608330396 0 0,0 -0.19129211969958174,0.526353756716944 l -10.805798402422791 -4.032762449913813" fill="#ff700a" stroke="none" /><path d="M 119.54520255179757 107.68017299344265 l 8.723047355461736 3.427670424105022 a30.37232520252644,30.37232520252644 0 0,0 -0.1953915111326493,0.4849457066900363 l -8.662753230071694 -3.577315498637872" fill="#ff5007" stroke="none" /><path d="M 119.26925614724726 108.34839909993367 l 11.486449881446902 4.976500759496287 a33.51815044997697,33.51815044997697 0 0,0 -0.23392303675060105,0.5274346939944409 l -11.399085759965027 -5.173483789983416" fill="#ff7e0b" stroke="none" /><path d="M 118.64920377521936 109.65438752849418 l 12.80620320780819 6.629561777919463 a35.420469131305246,35.420469131305246 0 0,0 -0.2849618770110296,0.5390404806176301 l -12.690188822572269 -6.849017273623227" fill="#ff980e" stroke="none" /><line stroke="#e1ed5e" stroke-width="0.3" x1="174.80103733775053" x2="179.2010983576182" y1="140.37084112569926" y2="142.7455964860345" /><path d="M 175.68104954172406 140.8457921977663 a86.0,86.0 0 0,1 -30.038265399797805,32.042727171017184" fill="none" id="id17" stroke="none" /><text fill="#e1ed5e" style="font-size:6.75px; font-family:Arial;" text-anchor="middle"><textPath startOffset="22.206326154141568" xlink:href="#id17">May</textPath></text><line stroke="#e1ed5e" stroke-width="0.3" x1="143.8653032363475" x2="146.44561519142675" y1="172.8068346515853" y2="177.08958963109032" /><path d="M 144.38136562736335 173.6633856474863 a86.0,86.0 0 0,1 -40.68145358897372,12.25698825130547" fill="none" id="id18" stroke="none" /><text fill="#e1ed5e" style="font-size:6.75px; font-family:Arial;" text-anchor="middle"><textPath startOffset="21.466115282336833" xlink:href="#id18">June</textPath></text><line stroke="#e1ed5e" stroke-width="0.3" x1="102.19456741930631" x2="102.32365962044197" y1="184.97166512339345" y2="189.96999836594603" /><path d="M 102.22038585953345 185.97133177190398 a86.0,86.0 0 0,1 -42.740103519485714,-10.115201625700543" fill="none" id="id19" stroke="none" /><text fill="#e1ed5e" style="font-size:6.75px; font-family:Arial;" text-anchor="middle"><textPath startOffset="22.20632615414155" xlink:href="#id19">July</textPath></text><line stroke="#e1ed5e" stroke-width="0.3" x1="58.666819895761336" x2="56.23545636021788" y1="174.27360380694188" y2="178.64263932499728" /><path d="M 58.180547188652646 175.14741091055294 a86.0,86.0 0 0,1 -31.652253787137756,-30.449443065178592" fill="none" id="id20" stroke="none" /><text fill="#e1ed5e" style="font-size:6.75px; font-family:Arial;" text-anchor="middle"><textPath startOffset="22.20632615414155" xlink:href="#id20">August</textPath></text><line stroke="#e1ed5e" stroke-width="0.3" x1="26.63291911575756" x2="22.317208475507996" y1="142.92168965132927" y2="145.44649492493687" /><path d="M 25.769776987707644 143.4266507060508 a86.0,86.0 0 0,1 -11.730757126820373,-40.83630448921669" fill="none" id="id21" stroke="none" /><text fill="#e1ed5e" style="font-size:6.75px; font-family:Arial;" text-anchor="middle"><textPath startOffset="21.46611528233685" xlink:href="#id21">September</textPath></text><line stroke="#e1ed5e" stroke-width="0.3" x1="15.007084014347285" x2="10.007500721073583" y1="101.09737516637583" y2="101.16192664675087" /><path d="M 14.007167355692545 101.11028546245083 a86.0,86.0 0 0,1 10.666146001902534,-42.60595125391555" fill="none" id="id22" stroke="none" /><text fill="#e1ed5e" style="font-size:6.75px; font-family:Arial;" text-anchor="middle"><textPath startOffset="22.20632615414155" xlink:href="#id22">October</textPath></text><line stroke="#e1ed5e" stroke-width="0.3" x1="26.266209847984243" x2="21.928928074336255" y1="57.711370442889674" y2="55.22380399835377" /><path d="M 25.398753493254645 57.213857153982495 a86.0,86.0 0 0,1 29.58750427330803,-30.492523968695096" fill="none" id="id23" stroke="none" /><text fill="#e1ed5e" style="font-size:6.75px; font-family:Arial;" text-anchor="middle"><textPath startOffset="21.46611528233685" xlink:href="#id23">November</textPath></text><line stroke="#e1ed5e" stroke-width="0.3" x1="56.762969772571076" x2="54.21961505331055" y1="26.818313649435495" y2="22.513508569990535" /><path d="M 56.25429882871897 25.957352633546506 a86.0,86.0 0 0,1 42.265352541879196,-11.944610805530505" fill="none" id="id24" stroke="none" /><text fill="#e1ed5e" style="font-size:6.75px; font-family:Arial;" text-anchor="middle"><textPath startOffset="22.20632615414155" xlink:href="#id24">December</textPath></text></svg>