<?xml version="1.0" encoding="utf-8" ?>
<svg baseProfile="full" height="200mm" version="1.1" viewBox="0,0,200,200" width="200mm" xmlns="http://www.w3.org/2000/svg" xmlns:ev="http://www.w3.org/2001/xml-events" xmlns:xlink="http://www.w3.org/1999/xlink"><defs /><rect fill="#1a1a1a" height="200" width="200" x="0" y="0" /><text alignment-baseline="middle" fill="#e1ed5e" style="dominant-baseline: central; font-size:9.0px; font-family:Arial;" text-anchor="middle" x="100.0" y="100.0">2022</text><line stroke="#e1ed5e" stroke-width="0.3" x1="100.0" x2="100.0" y1="15.0" y2="10.0" /><path d="M 100.0 14.0 a86.0,86.0 0 0,1 42.46469731375804,11.215312516191453" fill="none" id="id1" stroke="none" /><text fill="#e1ed5e" style="font-size:6.75px; font-family:Arial;" text-anchor="middle"><textPath startOffset="22.20632615414155" xlink:href="#id1">January</textPath></text><line stroke="#e1ed5e" stroke-width="0.3" x1="143.23703022742887" x2="145.7803849466894" y1="26.81831364943548" y2="22.513508569990506" /><path d="M 143.74570117128098 25.957352633546492 a86.0,86.0 0 0,1 28.547481713284135,27.462654790039103" fill="none" id="id2" stroke="none" /><text fill="#e1ed5e" style="font-size:6.75px; font-family:Arial;" text-anchor="middle"><textPath startOffset="19.985693538727396" xlink:href="#id2">February</textPath></text><line stroke="#e1ed5e" stroke-width="0.3" x1="172.23445277983987" x2="176.4835382374775" y1="55.19839476539836" y2="52.563006222186495" /><path d="M 173.08426987136738 54.67131705675599 a86.0,86.0 0 0,1 12.851231095245387,41.99856678651699" fill="none" id="id3" stroke="none" /><text fill="#e1ed5e" style="font-size:6.75px; font-family:Arial;" text-anchor="middle"><textPath startOffset="22.20632615414155" xlink:href="#id3">March</textPath></text><line stroke="#e1ed5e" stroke-width="0.3" x1="184.98032266829074" x2="189.97916517819016" y1="98.17113171792111" y2="98.06355123074" /><path d="M 185.9800911702706 98.14961562048488 a86.0,86.0 0 0,1 -9.607161424134198,41.387399972396054" fill="none" id="id4" stroke="none" /><text fill="#e1ed5e" style="font-size:6.75px; font-family:Arial;" text-anchor="middle"><textPath startOffset="21.466115282336823" xlink:href="#id4">April</textPath></text><line stroke="#e1ed5e" stroke-width="0.3" x1="174.80103733775053" x2="179.2010983576182" y1="140.37084112569926" y2="142.7455964860345" /><path d="M 175.68104954172406 140.8457921977663 a86.0,86.0 0 0,1 -30.038265399797805,32.042727171017184" fill="none" id="id5" stroke="none" /><text fill="#e1ed5e" style="font-size:6.75px; font-family:Arial;" text-anchor="middle"><textPath startOffset="22.206326154141568" xlink:href="#id5">May</textPath></text><line stroke="#e1ed5e" stroke-width="0.3" x1="143.8653032363475" x2="146.44561519142675" y1="172.8068346515853" y2="177.08958963109032" /><path d="M 144.38136562736335 173.6633856474863 a86.0,86.0 0 0,1 -40.68145358897372,12.25698825130547" fill="none" id="id6" stroke="none" /><text fill="#e1ed5e" style="font-size:6.75px; font-family:Arial;" text-anchor="middle"><textPath startOffset="21.466115282336833" xlink:href="#id6">June</textPath></text><line stroke="#e1ed5e" stroke-width="0.3" x1="102.19456741930631" x2="102.32365962044197" y1="184.97166512339345" y2="189.96999836594603" /><path d="M 102.22038585953345 185.97133177190398 a86.0,86.0 0 0,1 -42.740103519485714,-10.115201625700543" fill="none" id="id7" stroke="none" /><text fill="#e1ed5e" style="font-size:6.75px; font-family:Arial;" text-anchor="middle"><textPath startOffset="22.20632615414155" xlink:href="#id7">July</textPath></text><line stroke="#e1ed5e" stroke-width="0.3" x1="58.666819895761336" x2="56.23545636021788" y1="174.27360380694188" y2="178.64263932499728" /><path d="M 58.180547188652646 175.14741091055294 a86.0,86.0 0 0,1 -31.652253787137756,-30.449443065178592" fill="none" id="id8" stroke="none" /><text fill="#e1ed5e" style="font-size:6.75px; font-family:Arial;" text-anchor="middle"><textPath startOffset="22.20632615414155" xlink:href="#id8">August</textPath></text><line stroke="#e1ed5e" stroke-width="0.3" x1="26.63291911575756" x2="22.317208475507996" y1="142.92168965132927" y2="145.44649492493687" /><path d="M 25.769776987707644 143.4266507060508 a86.0,86.0 0 0,1 -11.730757126820373,-40.83630448921669" fill="none" id="id9" stroke="none" /><text fill="#e1ed5e" style="font-size:6.75px; font-family:Arial;" text-anchor="middle"><textPath startOffset="21.46611528233685" xlink:href="#id9">September</textPath></text><line stroke="#e1ed5e" stroke-width="0.3" x1="15.007084014347285" x2="10.007500721073583" y1="101.09737516637583" y2="101.16192664675087" /><path d="M 14.007167355692545 101.11028546245083 a86.0,86.0 0 0,1 10.666146001902534,-42.60595125391555" fill="none" id="id10" stroke="none" /><text fill="#e1ed5e" style="font-size:6.75px; font-family:Arial;" text-anchor="middle"><textPath startOffset="22.20632615414155" xlink:href="#id10">October</textPath></text><path d="M 79.00486145842228 99.54816195383935 l -22.752575898340034 -0.4896599952731379 a43.7578442942361,43.7578442942361 0 0,0 0.022688037077997665,-0.7529054965636371 l 22.74077616680639 0.8812356392617695" fill="#fffe18" stroke="none" /><path d="M 79.01574976396665 99.18683210126434 l -39.124411828158784 -1.5161235401654343 a60.15377672062319,60.15377672062319 0 0,0 0.049000670038934276,-1.0343266984998298 l 39.09251754988635 2.189361345288273" fill="#3fff2d" stroke="none" /><path d="M 79.08570108090925 98.10471618934814 l -16.321030669170675 -1.4790352437869994 a37.38790979217221,37.38790979217221 0 0,0 0.06360017154809236,-0.6404450480028467 l 16.293153371940353 1.7597558224942764" fill="#ffa90f" stroke="none" /><path d="M 79.12142395522702 97.74499172005258 l -32.19270404116341 -3.477000251887135 a53.379927798461225,53.379927798461225 0 0,0 0.10653018717749625,-0.9126855868478229 l 32.12808350098232 4.03062957705982" fill="#8aff24" stroke="none" /><path d="M 79.16333360222342 97.38593545837743 l -11.633636424999473 -1.45949816962875 a32.724829694977416,32.724829694977416 0 0,0 0.07493051151835811,-0.5583193447032464 l 11.606789914423281 1.6595358563966558" fill="#ff6609" stroke="none" /><path d="M 79.32604984820605 96.31383870115002 l -10.652595531547087 -1.899355715399353 a31.82059812082295,31.82059812082295 0 0,0 0.10078685946484553,-0.5384074333610313 l 10.61832294817238 2.082441226222957" fill="#ff5908" stroke="none" /><path d="M 79.81627453868168 94.20196356495316 l -4.769710921695578 -1.3701612104084542 a25.962608590151962,25.962608590151962 0 0,0 0.1270858599364077,-0.4284703419404064 l 4.745419164647464 1.4520609390953998" fill="#ff0000" stroke="none" /><path d="M 79.91906864156998 93.8553929516997 l -15.719032405992714 -4.809900277547444 a37.438464662510306,37.438464662510306 0 0,0 0.1938679870564704,-0.6146144981738567 l 15.63390893516804 5.079764942147716" fill="#ffa90f" stroke="none" /><path d="M 80.38941819471856 92.48833698450439 l -58.83174541584431 -22.534989046486853 a84.0,84.0 0 0,0 0.5288258004732356,-1.3458039804169464 l 58.435126065489385 23.544342031799562" fill="#4dd2ff" stroke="none" /><line stroke="#e1ed5e" stroke-width="0.3" x1="26.266209847984243" x2="21.928928074336255" y1="57.711370442889674" y2="55.22380399835377" /><path d="M 25.398753493254645 57.213857153982495 a86.0,86.0 0 0,1 29.58750427330803,-30.492523968695096" fill="none" id="id11" stroke="none" /><text fill="#e1ed5e" style="font-size:6.75px; font-family:Arial;" text-anchor="middle"><textPath startOffset="21.46611528233685" xlink:href="#id11">November</textPath></text><path d="M 81.78341655067845 89.55222093294921 l -26.283957529143017 -15.074669848832706 a51.30003456178061,51.30003456178061 0 0,0 0.44592023850433393,-0.7622222347729737 l 26.020577616168357 15.524871495959571" fill="#a2ff22" stroke="none" /><path d="M 81.96595687620814 89.24020034530311 l -23.220411952509295 -13.854185597400077 a48.03934151956079,48.03934151956079 0 0,0 0.4298015872504035,-0.7064808007215144 l 22.978494566972675 14.251834171328666" fill="#c9ff1d" stroke="none" /><path d="M 82.54541684631803 88.32363383020206 l -31.52935037245132 -21.091780697549193 a58.933667735961215,58.933667735961215 0 0,0 0.5713072809261533,-0.8383229391433741 l 31.161618625856427 21.631381659962983" fill="#4cff2c" stroke="none" /><path d="M 83.39014120810768 87.1503855733568 l -22.4296566450406 -17.351889815670848 a49.35802492046291,49.35802492046291 0 0,0 0.5256533744477436,-0.6675264046126897 l 22.12764918999888 17.735408614236587" fill="#b9ff1f" stroke="none" /><path d="M 84.31358615837235 86.03803664274999 l -46.11012643122211 -41.04111380272548 a82.72938345449072,82.72938345449072 0 0,0 0.9559433811021868,-1.055576557501852 l 45.39683940950388 41.82874314749688" fill="#4bdeff" stroke="none" /><path d="M 86.93701828274178 83.55741782278169 l -16.43246361171421 -20.6838024547485 a47.416766348994564,47.416766348994564 0 0,0 0.6434397499559766,-0.5022149309128335 l 16.073991306598806 20.963595774884556" fill="#d1ff1c" stroke="none" /><path d="M 87.80319425747018 82.90503203632743 l -21.438757605416054 -30.048430891013908 a57.91244406261693,57.91244406261693 0 0,0 0.816479586549715,-0.5719961281510509 l 20.91834687928268 30.413011861928904" fill="#57ff2a" stroke="none" /><path d="M 88.09926311788651 82.69761687909137 l -34.79320848876585 -50.58555862898508 a82.395977871105,82.395977871105 0 0,0 1.1754975319031291,-0.7937011808489195 l 33.91730626245618 51.17697172213267" fill="#4be2ff" stroke="none" /><line stroke="#e1ed5e" stroke-width="0.3" x1="56.762969772571076" x2="54.21961505331055" y1="26.818313649435495" y2="22.513508569990535" /><path d="M 56.25429882871897 25.957352633546506 a86.0,86.0 0 0,1 42.265352541879196,-11.944610805530505" fill="none" id="id12" stroke="none" /><text fill="#e1ed5e" style="font-size:6.75px; font-family:Arial;" text-anchor="middle"><textPath startOffset="22.20632615414155" xlink:href="#id12">December</textPath></text></svg>